<?xml version="1.0" encoding="utf-8"?>
<!-- Generator: Adobe Illustrator 21.1.0, SVG Export Plug-In . SVG Version: 6.00 Build 0)  -->
<svg version="1.1" id="Calque_1" xmlns="http://www.w3.org/2000/svg" xmlns:xlink="http://www.w3.org/1999/xlink" x="0px" y="0px"
	 viewBox="0 0 268 180" style="enable-background:new 0 0 268 180;" xml:space="preserve">
<style type="text/css">
	.st0{fill:#FFFFFF;}
	.st1{display:none;}
	.st2{display:inline;}
</style>
<g>
	<path class="st0" d="M0,0v180h440V0H0z M60,120V60h24.9c-11.3,5.2-19.1,16.7-19.1,30s7.8,24.8,19.1,30H60z M128,120h-15.9
		c3.5-1.6,6.7-3.9,9.4-6.6l-11.4-11.5c-3,3-7.1,4.8-11.6,4.8C89.4,106.7,82,99.2,82,90s7.4-16.7,16.6-16.7c4.5,0,8.6,1.8,11.6,4.8
		l11.5-11.5c-2.7-2.7-6-5-9.5-6.6H128V120z M171.4,60v32.7L143.8,60H171.4z M145.4,120V87.4l27.4,32.6H145.4z M189,120V60h24.9
		c-11.3,5.2-19.1,16.7-19.1,30s7.8,24.8,19.1,30H189z M257,120h-15.9c3.5-1.6,6.7-3.9,9.4-6.6l-11.4-11.5c-3,3-7.1,4.8-11.6,4.8
		c-9.2,0-16.6-7.5-16.6-16.7s7.4-16.7,16.6-16.7c4.5,0,8.6,1.8,11.6,4.8l11.5-11.5c-2.7-2.7-5.9-5-9.5-6.6H257V120z"/>
	<g class="st1">
		<path class="st2" d="M274,70.3c-0.5,0.7-1.5,1.2-2.6,1.2c-1.2,0-2.1-0.6-2.7-1.2c-0.6-0.7-0.8-1.7-0.8-2.8s0.3-2.1,0.8-2.8
			c0.5-0.6,1.5-1.2,2.7-1.2s2.1,0.5,2.6,1.2c0.4,0.5,0.6,1.1,0.6,1.7h-1.8c0-0.3-0.1-0.5-0.2-0.7c-0.2-0.3-0.6-0.6-1.2-0.6
			c-0.5,0-0.9,0.2-1.1,0.5c-0.4,0.5-0.5,1.2-0.5,1.9c0,0.7,0.1,1.4,0.5,1.9c0.3,0.3,0.6,0.5,1.1,0.5c0.6,0,1-0.2,1.2-0.6
			c0.1-0.2,0.2-0.4,0.2-0.7h1.8C274.5,69.2,274.3,69.8,274,70.3z"/>
		<path class="st2" d="M273.3,94.2l-0.1-0.8c-0.5,0.7-1.3,1-2.1,1c-0.8,0-1.4-0.3-1.9-0.6c-0.9-0.7-1.4-1.9-1.4-3.3
			c0-1.5,0.5-2.7,1.4-3.4c0.5-0.4,1.1-0.6,1.9-0.6c1,0,1.7,0.3,2,0.7v-3.5h1.8v10.6L273.3,94.2L273.3,94.2z M271.4,88
			c-0.6,0-1,0.3-1.2,0.6c-0.4,0.5-0.5,1.2-0.5,1.9c0,0.7,0.1,1.4,0.5,1.9c0.3,0.3,0.7,0.6,1.2,0.6c1.4,0,1.7-1.4,1.7-2.5
			C273.2,89.3,272.9,88,271.4,88z"/>
	</g>
</g>
</svg>
