<?xml version="1.0" encoding="utf-8"?>
<!-- Generator: Adobe Illustrator 21.1.0, SVG Export Plug-In . SVG Version: 6.00 Build 0)  -->
<svg version="1.1" id="Calque_1" xmlns="http://www.w3.org/2000/svg" xmlns:xlink="http://www.w3.org/1999/xlink" x="0px" y="0px"
	 viewBox="0 0 98 29.5" style="enable-background:new 0 0 98 29.5;" xml:space="preserve">
<g>
	<g>
		<path d="M2.9,14.7C2.9,8.2,6.8,2.5,12.5,0H0v29.4h12.5C6.8,26.9,2.9,21.2,2.9,14.7z M30.9,3.3l-5.7,5.6c-1.5-1.5-3.6-2.4-5.8-2.4
			c-4.6,0-8.3,3.7-8.3,8.2c0,4.5,3.7,8.2,8.3,8.2c2.3,0,4.3-0.9,5.8-2.3l5.7,5.6c-1.4,1.3-3,2.4-4.7,3.2h8V0h-8
			C27.9,0.8,29.5,1.9,30.9,3.3z M55.4,0H41.8l13.6,16V0z M42.6,29.4h13.5l-13.5-16V29.4z M66.8,14.7c0-6.5,3.9-12.2,9.6-14.7H63.9
			v29.4h12.5C70.8,26.9,66.8,21.2,66.8,14.7z M90,0c1.8,0.8,3.4,1.9,4.8,3.3l-5.7,5.6c-1.5-1.5-3.6-2.4-5.8-2.4
			c-4.6,0-8.3,3.7-8.3,8.2c0,4.5,3.7,8.2,8.3,8.2c2.3,0,4.3-0.9,5.8-2.3l5.7,5.6c-1.4,1.3-3,2.4-4.7,3.2h8V0H90z"/>
	</g>
</g>
</svg>
