<?xml version="1.0" encoding="utf-8"?>
<!-- Generator: Adobe Illustrator 21.1.0, SVG Export Plug-In . SVG Version: 6.00 Build 0)  -->
<svg version="1.1" id="Calque_1" xmlns="http://www.w3.org/2000/svg" xmlns:xlink="http://www.w3.org/1999/xlink" x="0px" y="0px"
	 viewBox="0 0 440 180" style="enable-background:new 0 0 440 180;" xml:space="preserve">
<style type="text/css">
	.st0{fill:#FFFFFF;}
</style>
<g>
	<path class="st0" d="M0,0v180h440V0H0z M60,120V60h24.9c-11.3,5.2-19.1,16.7-19.1,30c0,13.3,7.8,24.8,19.1,30H60z M128,120h-15.9
		c3.5-1.6,6.7-3.9,9.4-6.6l-11.4-11.5c-3,3-7.1,4.8-11.6,4.8C89.4,106.7,82,99.2,82,90c0-9.2,7.4-16.7,16.6-16.7
		c4.5,0,8.6,1.8,11.6,4.8l11.5-11.5c-2.7-2.7-6-5-9.5-6.6H128V120z M171.4,60v32.7L143.8,60H171.4z M145.4,120V87.4l27.4,32.6H145.4
		z M189,120V60h24.9c-11.3,5.2-19.1,16.7-19.1,30c0,13.3,7.8,24.8,19.1,30H189z M257,120h-15.9c3.5-1.6,6.7-3.9,9.4-6.6l-11.4-11.5
		c-3,3-7.1,4.8-11.6,4.8c-9.2,0-16.6-7.5-16.6-16.7c0-9.2,7.4-16.7,16.6-16.7c4.5,0,8.6,1.8,11.6,4.8l11.5-11.5
		c-2.7-2.7-5.9-5-9.5-6.6H257V120z"/>
	<g>
		<path d="M274,70.3c-0.5,0.7-1.5,1.2-2.6,1.2c-1.2,0-2.1-0.6-2.7-1.2c-0.6-0.7-0.8-1.7-0.8-2.8s0.3-2.1,0.8-2.8
			c0.5-0.6,1.5-1.2,2.7-1.2c1.2,0,2.1,0.5,2.6,1.2c0.4,0.5,0.6,1.1,0.6,1.7h-1.8c0-0.3-0.1-0.5-0.2-0.7c-0.2-0.3-0.6-0.6-1.2-0.6
			c-0.5,0-0.9,0.2-1.1,0.5c-0.4,0.5-0.5,1.2-0.5,1.9c0,0.7,0.1,1.4,0.5,1.9c0.3,0.3,0.6,0.5,1.1,0.5c0.6,0,1-0.2,1.2-0.6
			c0.1-0.2,0.2-0.4,0.2-0.7h1.8C274.5,69.2,274.3,69.8,274,70.3z"/>
		<path d="M282.6,68.1h-5.1c0,0.6,0.2,1.1,0.6,1.5c0.3,0.2,0.6,0.5,1.1,0.5c0.5,0,0.9-0.1,1.1-0.4c0.2-0.2,0.3-0.4,0.4-0.6h1.8
			c0,0.5-0.4,1.1-0.6,1.4c-0.6,0.8-1.6,1.1-2.6,1.1c-1,0-1.8-0.4-2.4-0.9c-0.8-0.7-1.2-1.8-1.2-3.1c0-1.2,0.4-2.3,1.1-3.1
			c0.6-0.6,1.4-1,2.4-1c1.1,0,2.2,0.5,2.8,1.4c0.6,0.8,0.7,1.7,0.7,2.7C282.6,67.6,282.6,67.9,282.6,68.1z M280.3,65.4
			c-0.3-0.3-0.6-0.4-1.2-0.4c-0.6,0-1,0.2-1.3,0.6c-0.3,0.3-0.4,0.7-0.4,1.2h3.3C280.8,66.2,280.6,65.7,280.3,65.4z"/>
		<path d="M289,71.3v-4.7c0-0.9-0.3-1.4-1.3-1.4c-0.6,0-1.1,0.4-1.3,1c-0.3,0.6-0.3,1.4-0.3,2v3.1h-1.8v-7.6h1.5l0.1,1
			c0.5-0.8,1.4-1.2,2.2-1.2c1.6,0,2.6,1.1,2.6,2.7v5.1H289z"/>
		<path d="M295.8,71.4c-1.5,0-2.3-0.9-2.3-2.4v-3.9h-1.4v-1.5h1.4v-1.9l1.8-0.5v2.4h1.9v1.5h-1.9v3.7c0,0.6,0.3,0.8,0.9,0.8
			c0.4,0,0.7,0,1.2-0.1v1.5C296.9,71.4,296.3,71.4,295.8,71.4z"/>
		<path d="M302.7,65.3c-1.3,0-2,0.9-2,2.2v3.8h-1.9v-7.6h1.6l0.2,1.1c0.4-0.9,1.3-1.2,2.2-1.2c0.2,0,0.4,0,0.6,0v1.8
			C303.2,65.4,303,65.3,302.7,65.3z"/>
		<path d="M311,68.1h-5.1c0,0.6,0.2,1.1,0.6,1.5c0.3,0.2,0.6,0.5,1.1,0.5c0.5,0,0.9-0.1,1.1-0.4c0.2-0.2,0.3-0.4,0.4-0.6h1.8
			c0,0.5-0.4,1.1-0.6,1.4c-0.6,0.8-1.6,1.1-2.6,1.1c-1,0-1.8-0.4-2.4-0.9c-0.8-0.7-1.2-1.8-1.2-3.1c0-1.2,0.4-2.3,1.1-3.1
			c0.6-0.6,1.4-1,2.4-1c1.1,0,2.2,0.5,2.8,1.4c0.6,0.8,0.7,1.7,0.7,2.7C311.1,67.6,311,67.9,311,68.1z M308.7,65.4
			c-0.3-0.3-0.6-0.4-1.2-0.4c-0.6,0-1,0.2-1.3,0.6c-0.3,0.3-0.4,0.7-0.4,1.2h3.3C309.2,66.2,309,65.7,308.7,65.4z"/>
		<path d="M320.4,71.3v-4.7c0-0.9-0.3-1.4-1.3-1.4c-0.6,0-1.1,0.4-1.3,1c-0.3,0.6-0.3,1.4-0.3,2v3.1h-1.8v-7.6h1.5l0.1,1
			c0.5-0.8,1.4-1.2,2.2-1.2c1.6,0,2.6,1.1,2.6,2.7v5.1H320.4z"/>
		<path d="M330.1,71.5c-0.8,0-1.2-0.5-1.3-1.1c-0.4,0.6-1.2,1.1-2.3,1.1c-1.8,0-2.8-1.1-2.8-2.4c0-1.5,1.1-2.3,2.6-2.4l2.3-0.2v-0.5
			c0-0.7-0.3-1.2-1.3-1.2c-0.9,0-1.4,0.4-1.4,1.1h-1.8c0.1-1.7,1.5-2.5,3.2-2.5c1.3,0,2.4,0.4,2.9,1.6c0.2,0.5,0.2,1,0.2,1.5v2.8
			c0,0.4,0.1,0.5,0.4,0.5c0.1,0,0.2,0,0.2,0v1.4C330.7,71.4,330.6,71.5,330.1,71.5z M328.6,67.9l-1.9,0.1c-0.6,0-1.1,0.4-1.1,1
			c0,0.6,0.5,1,1.1,1c1.1,0,2-0.6,2-1.7V67.9z"/>
		<path d="M335.3,71.4c-1.5,0-2.3-0.9-2.3-2.4v-3.9h-1.4v-1.5h1.4v-1.9l1.8-0.5v2.4h1.9v1.5h-1.9v3.7c0,0.6,0.3,0.8,0.9,0.8
			c0.4,0,0.7,0,1.2-0.1v1.5C336.4,71.4,335.9,71.4,335.3,71.4z"/>
		<path d="M338.4,62.6v-1.9h2v1.9H338.4z M338.5,71.3v-7.6h1.9v7.6H338.5z"/>
		<path d="M348.4,70.3c-0.5,0.6-1.5,1.2-2.7,1.2c-1.2,0-2.1-0.5-2.7-1.2c-0.6-0.7-0.9-1.5-0.9-2.8c0-1.3,0.3-2.1,0.9-2.8
			c0.5-0.6,1.5-1.2,2.7-1.2c1.2,0,2.1,0.5,2.7,1.2c0.6,0.7,0.9,1.5,0.9,2.8C349.3,68.8,348.9,69.6,348.4,70.3z M346.8,65.6
			c-0.3-0.3-0.7-0.5-1.2-0.5c-0.5,0-0.9,0.2-1.2,0.5c-0.4,0.5-0.5,1.2-0.5,1.9c0,0.7,0.1,1.4,0.5,1.9c0.3,0.3,0.7,0.5,1.2,0.5
			c0.5,0,0.9-0.2,1.2-0.5c0.4-0.5,0.5-1.2,0.5-1.9C347.4,66.8,347.3,66.1,346.8,65.6z"/>
		<path d="M355.7,71.3v-4.7c0-0.9-0.3-1.4-1.3-1.4c-0.6,0-1.1,0.4-1.3,1c-0.3,0.6-0.3,1.4-0.3,2v3.1H351v-7.6h1.5l0.1,1
			c0.5-0.8,1.4-1.2,2.3-1.2c1.6,0,2.6,1.1,2.6,2.7v5.1H355.7z"/>
		<path d="M365.5,71.5c-0.8,0-1.2-0.5-1.3-1.1c-0.4,0.6-1.2,1.1-2.3,1.1c-1.8,0-2.8-1.1-2.8-2.4c0-1.5,1.1-2.3,2.6-2.4l2.2-0.2v-0.5
			c0-0.7-0.3-1.2-1.3-1.2c-0.9,0-1.4,0.4-1.4,1.1h-1.8c0.1-1.7,1.5-2.5,3.2-2.5c1.3,0,2.4,0.4,2.9,1.6c0.2,0.5,0.2,1,0.2,1.5v2.8
			c0,0.4,0.1,0.5,0.4,0.5c0.1,0,0.2,0,0.2,0v1.4C366.1,71.4,365.9,71.5,365.5,71.5z M363.9,67.9l-1.9,0.1c-0.6,0-1.1,0.4-1.1,1
			c0,0.6,0.5,1,1.1,1c1.1,0,2-0.6,2-1.7V67.9z"/>
		<path d="M370,71.4c-1.3,0-2.1-0.6-2.1-2.1v-8.7h1.9v8.3c0,0.4,0.1,0.7,0.7,0.7c0.2,0,0.2,0,0.3,0v1.5
			C370.4,71.4,370.4,71.4,370,71.4z"/>
		<path d="M273.3,94.2l-0.1-0.8c-0.5,0.7-1.3,1-2.1,1c-0.8,0-1.4-0.3-1.9-0.6c-0.9-0.7-1.4-1.9-1.4-3.3c0-1.5,0.5-2.7,1.4-3.4
			c0.5-0.4,1.1-0.6,1.9-0.6c1,0,1.7,0.3,2,0.7v-3.5h1.8v10.6H273.3z M271.4,88c-0.6,0-1,0.3-1.2,0.6c-0.4,0.5-0.5,1.2-0.5,1.9
			c0,0.7,0.1,1.4,0.5,1.9c0.3,0.3,0.7,0.6,1.2,0.6c1.4,0,1.7-1.4,1.7-2.5C273.2,89.3,272.9,88,271.4,88z"/>
		<path d="M281.7,94.2l-0.1-1c-0.4,0.7-1.2,1.2-2.2,1.2c-1.6,0-2.6-1.1-2.6-2.7v-5.1h1.8v4.7c0,0.9,0.4,1.5,1.3,1.5
			c0.4,0,0.7-0.2,0.9-0.4c0.4-0.4,0.6-1.1,0.6-1.7v-4h1.8v7.6H281.7z"/>
		<path d="M293.4,93.2c-0.5,0.7-1.5,1.2-2.6,1.2c-1.2,0-2.1-0.6-2.7-1.2c-0.6-0.7-0.8-1.7-0.8-2.8c0-1.1,0.3-2.1,0.8-2.8
			c0.5-0.6,1.5-1.2,2.7-1.2c1.2,0,2.1,0.5,2.6,1.2c0.4,0.5,0.6,1.1,0.6,1.7h-1.8c0-0.3-0.1-0.5-0.2-0.7c-0.2-0.3-0.6-0.6-1.2-0.6
			c-0.5,0-0.9,0.2-1.1,0.5c-0.4,0.5-0.5,1.2-0.5,1.9c0,0.7,0.1,1.4,0.5,1.9c0.3,0.3,0.6,0.5,1.1,0.5c0.6,0,1-0.2,1.2-0.6
			c0.1-0.2,0.2-0.4,0.2-0.7h1.8C293.9,92.1,293.7,92.7,293.4,93.2z"/>
		<path d="M295.6,85.5v-1.9h2v1.9H295.6z M295.6,94.2v-7.6h1.9v7.6H295.6z"/>
		<path d="M304.5,94.2v-4.7c0-0.9-0.3-1.4-1.3-1.4c-0.6,0-1.1,0.4-1.3,1c-0.3,0.6-0.3,1.4-0.3,2v3.1h-1.8v-7.6h1.5l0.1,1
			c0.5-0.8,1.4-1.2,2.2-1.2c1.6,0,2.6,1.1,2.6,2.7v5.1H304.5z"/>
		<path d="M314.9,91h-5.1c0,0.6,0.2,1.1,0.6,1.5c0.3,0.2,0.6,0.5,1.1,0.5c0.5,0,0.9-0.1,1.1-0.4c0.2-0.2,0.3-0.4,0.4-0.6h1.8
			c0,0.5-0.4,1.1-0.6,1.4c-0.6,0.8-1.6,1.1-2.6,1.1c-1,0-1.8-0.4-2.4-0.9c-0.8-0.7-1.2-1.8-1.2-3.1c0-1.2,0.4-2.3,1.1-3.1
			c0.6-0.6,1.4-1,2.4-1c1.1,0,2.2,0.5,2.8,1.4c0.6,0.8,0.7,1.7,0.7,2.7C315,90.5,314.9,90.8,314.9,91z M312.7,88.3
			c-0.3-0.3-0.6-0.4-1.2-0.4c-0.6,0-1,0.2-1.3,0.6c-0.3,0.3-0.4,0.7-0.4,1.2h3.3C313.1,89.1,312.9,88.6,312.7,88.3z M310.4,85.9
			l-0.6-1l2.7-2l0.8,1.3L310.4,85.9z"/>
		<path d="M325.7,94.2v-4.7c0-0.9-0.3-1.5-1.2-1.5c-1,0-1.5,1.1-1.5,2.1v4.2h-1.8v-4.7c0-0.9-0.3-1.5-1.2-1.5c-1,0-1.5,1.1-1.5,2.1
			v4.2h-1.8v-7.6h1.5l0.1,1c0.4-0.7,1.2-1.2,2.2-1.2c1.1,0,1.8,0.5,2.2,1.2c0.5-0.8,1.3-1.2,2.3-1.2c1.6,0,2.5,1.1,2.5,2.7v5.2
			H325.7z"/>
		<path d="M335.4,94.4c-0.8,0-1.2-0.5-1.3-1.1c-0.4,0.6-1.2,1.1-2.3,1.1c-1.8,0-2.8-1.1-2.8-2.4c0-1.5,1.1-2.3,2.6-2.4l2.2-0.2V89
			c0-0.7-0.3-1.2-1.3-1.2c-0.9,0-1.4,0.4-1.4,1.1h-1.8c0.1-1.7,1.5-2.5,3.2-2.5c1.3,0,2.4,0.4,2.9,1.6c0.2,0.5,0.2,1,0.2,1.5v2.8
			c0,0.4,0.1,0.5,0.4,0.5c0.1,0,0.2,0,0.2,0v1.4C336,94.3,335.9,94.4,335.4,94.4z M333.9,90.8l-1.9,0.1c-0.6,0-1.1,0.4-1.1,1
			c0,0.6,0.5,1,1.1,1c1.1,0,2-0.6,2-1.7V90.8z"/>
		<path d="M347.1,91h-5.1c0,0.6,0.2,1.1,0.6,1.5c0.3,0.2,0.6,0.5,1.1,0.5c0.5,0,0.9-0.1,1.1-0.4c0.2-0.2,0.3-0.4,0.4-0.6h1.8
			c0,0.5-0.4,1.1-0.6,1.4c-0.6,0.8-1.6,1.1-2.6,1.1c-1,0-1.8-0.4-2.4-0.9c-0.8-0.7-1.2-1.8-1.2-3.1c0-1.2,0.4-2.3,1.1-3.1
			c0.6-0.6,1.4-1,2.4-1c1.1,0,2.2,0.5,2.8,1.4c0.6,0.8,0.7,1.7,0.7,2.7C347.1,90.5,347.1,90.8,347.1,91z M344.8,88.3
			c-0.3-0.3-0.6-0.4-1.2-0.4c-0.6,0-1,0.2-1.3,0.6c-0.3,0.3-0.4,0.7-0.4,1.2h3.3C345.2,89.1,345.1,88.6,344.8,88.3z"/>
		<path d="M351.1,94.3c-1.5,0-2.3-0.9-2.3-2.4v-3.9h-1.4v-1.5h1.4v-1.9l1.8-0.5v2.4h1.9v1.5h-1.9v3.7c0,0.6,0.3,0.8,0.9,0.8
			c0.4,0,0.7,0,1.2-0.1v1.5C352.2,94.3,351.6,94.3,351.1,94.3z"/>
		<path d="M361.5,94.2l-0.1-0.8c-0.5,0.7-1.3,1-2.1,1c-0.8,0-1.4-0.3-1.9-0.6c-0.9-0.7-1.4-1.9-1.4-3.3c0-1.5,0.5-2.7,1.4-3.4
			c0.5-0.4,1.1-0.6,1.9-0.6c1,0,1.7,0.3,2,0.7v-3.5h1.8v10.6H361.5z M359.6,88c-0.6,0-1,0.3-1.2,0.6c-0.4,0.5-0.5,1.2-0.5,1.9
			c0,0.7,0.1,1.4,0.5,1.9c0.3,0.3,0.7,0.6,1.2,0.6c1.4,0,1.7-1.4,1.7-2.5C361.3,89.3,361,88,359.6,88z"/>
		<path d="M371.4,91h-5.1c0,0.6,0.2,1.1,0.6,1.5c0.3,0.2,0.6,0.5,1.1,0.5c0.5,0,0.9-0.1,1.1-0.4c0.2-0.2,0.3-0.4,0.4-0.6h1.8
			c0,0.5-0.4,1.1-0.6,1.4c-0.6,0.8-1.6,1.1-2.6,1.1c-1,0-1.8-0.4-2.4-0.9c-0.8-0.7-1.2-1.8-1.2-3.1c0-1.2,0.4-2.3,1.1-3.1
			c0.6-0.6,1.4-1,2.4-1c1.1,0,2.2,0.5,2.8,1.4c0.6,0.8,0.7,1.7,0.7,2.7C371.4,90.5,371.4,90.8,371.4,91z M369.1,88.3
			c-0.3-0.3-0.6-0.4-1.2-0.4c-0.6,0-1,0.2-1.3,0.6c-0.3,0.3-0.4,0.7-0.4,1.2h3.3C369.6,89.1,369.4,88.6,369.1,88.3z"/>
		<path d="M270.9,117.2c-1.2,0-2.1-0.6-2.1-2.1v-8.7h1.9v8.3c0,0.4,0.1,0.7,0.7,0.7c0.2,0,0.2,0,0.3,0v1.5
			C271.3,117.2,271.2,117.2,270.9,117.2z"/>
		<path d="M273.5,111.2l-0.5-0.9c0.8-0.4,1-0.8,1-1.5h-1.1v-2.2h2.1v2C275,109.9,274.7,110.7,273.5,111.2z"/>
		<path d="M277.4,108.4v-1.9h2v1.9H277.4z M277.4,117.1v-7.6h1.9v7.6H277.4z"/>
		<path d="M290.6,117.1v-4.7c0-0.9-0.3-1.5-1.2-1.5c-1,0-1.5,1.1-1.5,2.1v4.2h-1.8v-4.7c0-0.9-0.2-1.5-1.2-1.5c-1,0-1.5,1.1-1.5,2.1
			v4.2h-1.8v-7.6h1.5l0.1,1c0.4-0.7,1.2-1.2,2.2-1.2c1.1,0,1.8,0.5,2.2,1.2c0.5-0.8,1.3-1.2,2.3-1.2c1.6,0,2.5,1.1,2.5,2.7v5.2
			H290.6z"/>
		<path d="M300.4,117.3c-0.8,0-1.2-0.5-1.3-1.1c-0.4,0.6-1.2,1.1-2.3,1.1c-1.8,0-2.8-1.1-2.8-2.4c0-1.5,1.1-2.3,2.6-2.4l2.2-0.2
			v-0.5c0-0.7-0.3-1.2-1.3-1.2c-0.9,0-1.4,0.4-1.4,1.1h-1.8c0.1-1.7,1.5-2.5,3.2-2.5c1.3,0,2.4,0.4,2.9,1.6c0.2,0.5,0.2,1,0.2,1.5
			v2.8c0,0.4,0.1,0.5,0.4,0.5c0.1,0,0.2,0,0.2,0v1.4C301,117.2,300.8,117.3,300.4,117.3z M298.8,113.8l-1.9,0.1
			c-0.6,0-1.1,0.4-1.1,1c0,0.6,0.5,1,1.1,1c1.1,0,2-0.6,2-1.7V113.8z"/>
		<path d="M305.9,120.7c-0.9,0-1.9-0.1-2.7-0.6c-0.6-0.4-0.9-1-0.9-1.7c0-0.7,0.3-1.3,0.9-1.6c-0.5-0.3-0.8-0.8-0.8-1.3
			c0-0.6,0.3-1.2,0.9-1.5c-0.5-0.5-0.8-1.1-0.8-1.9c0-1.8,1.4-2.8,3.1-2.8c0.6,0,1.2,0.2,1.7,0.5c0.3-0.7,0.9-1,1.6-1
			c0.1,0,0.4,0,0.5,0v1.4c0,0-0.1,0-0.1,0c-0.4,0-0.8,0.1-0.9,0.5c0.3,0.4,0.4,0.9,0.4,1.4c0,1.7-1.5,2.8-3.1,2.8
			c-0.4,0-0.9-0.1-1.2-0.2c-0.2,0.1-0.4,0.3-0.4,0.5c0,0.5,0.5,0.6,0.8,0.6h1.3c0.8,0,1.8,0,2.5,0.5c0.7,0.5,0.9,1.1,0.9,1.8
			C309.6,120.2,307.6,120.7,305.9,120.7z M306,117.3h-1.4c-0.4,0.1-0.7,0.5-0.7,0.9c0,1,1.2,1.1,1.9,1.1c0.7,0,2,0,2-1.1
			C307.9,117.3,306.7,117.3,306,117.3z M305.7,110.7c-0.8,0-1.4,0.6-1.4,1.4c0,0.8,0.5,1.4,1.4,1.4c0.8,0,1.4-0.6,1.4-1.4
			C307.1,111.3,306.5,110.7,305.7,110.7z"/>
		<path d="M317.3,113.9h-5.1c0,0.6,0.2,1.1,0.6,1.5c0.3,0.2,0.6,0.5,1.1,0.5c0.5,0,0.9-0.1,1.1-0.4c0.2-0.2,0.3-0.4,0.4-0.6h1.8
			c0,0.5-0.4,1.1-0.6,1.4c-0.6,0.8-1.6,1.1-2.6,1.1c-1,0-1.8-0.4-2.4-0.9c-0.8-0.7-1.2-1.8-1.2-3.1c0-1.2,0.4-2.3,1.1-3.1
			c0.6-0.6,1.4-1,2.4-1c1.1,0,2.2,0.5,2.8,1.4c0.6,0.8,0.7,1.7,0.7,2.7C317.3,113.4,317.3,113.7,317.3,113.9z M315,111.2
			c-0.3-0.3-0.6-0.4-1.2-0.4c-0.6,0-1,0.2-1.3,0.6c-0.3,0.3-0.4,0.7-0.4,1.2h3.3C315.4,112,315.3,111.5,315,111.2z"/>
		<path d="M328.5,117.3c-0.8,0-1.2-0.5-1.3-1.1c-0.4,0.6-1.2,1.1-2.3,1.1c-1.8,0-2.8-1.1-2.8-2.4c0-1.5,1.1-2.3,2.6-2.4l2.3-0.2
			v-0.5c0-0.7-0.3-1.2-1.3-1.2c-0.9,0-1.4,0.4-1.4,1.1h-1.8c0.1-1.7,1.5-2.5,3.2-2.5c1.3,0,2.4,0.4,2.9,1.6c0.2,0.5,0.2,1,0.2,1.5
			v2.8c0,0.4,0.1,0.5,0.4,0.5c0.1,0,0.2,0,0.2,0v1.4C329.1,117.2,328.9,117.3,328.5,117.3z M326.9,113.8l-1.9,0.1
			c-0.6,0-1.1,0.4-1.1,1c0,0.6,0.5,1,1.1,1c1.1,0,2-0.6,2-1.7V113.8z"/>
		<path d="M335.7,117.1v-4.7c0-0.9-0.3-1.4-1.3-1.4c-0.6,0-1.1,0.4-1.3,1c-0.3,0.6-0.3,1.4-0.3,2v3.1H331v-7.6h1.5l0.1,1
			c0.5-0.8,1.4-1.2,2.2-1.2c1.6,0,2.6,1.1,2.6,2.7v5.1H335.7z"/>
		<path d="M339.7,108.4v-1.9h2v1.9H339.7z M339.7,117.1v-7.6h1.9v7.6H339.7z"/>
		<path d="M352.9,117.1v-4.7c0-0.9-0.3-1.5-1.2-1.5c-1,0-1.5,1.1-1.5,2.1v4.2h-1.8v-4.7c0-0.9-0.3-1.5-1.2-1.5c-1,0-1.5,1.1-1.5,2.1
			v4.2h-1.8v-7.6h1.5l0.1,1c0.4-0.7,1.2-1.2,2.2-1.2c1.1,0,1.8,0.5,2.2,1.2c0.5-0.8,1.3-1.2,2.3-1.2c1.6,0,2.5,1.1,2.5,2.7v5.2
			H352.9z"/>
		<path d="M363.3,113.9h-5.1c0,0.6,0.2,1.1,0.6,1.5c0.3,0.2,0.6,0.5,1.1,0.5c0.5,0,0.9-0.1,1.1-0.4c0.2-0.2,0.3-0.4,0.4-0.6h1.8
			c0,0.5-0.4,1.1-0.6,1.4c-0.6,0.8-1.6,1.1-2.6,1.1c-1,0-1.8-0.4-2.4-0.9c-0.8-0.7-1.2-1.8-1.2-3.1c0-1.2,0.4-2.3,1.1-3.1
			c0.6-0.6,1.4-1,2.4-1c1.1,0,2.2,0.5,2.8,1.4c0.6,0.8,0.7,1.7,0.7,2.7C363.4,113.4,363.3,113.7,363.3,113.9z M361.1,111.2
			c-0.3-0.3-0.6-0.4-1.2-0.4c-0.6,0-1,0.2-1.3,0.6c-0.3,0.3-0.4,0.7-0.4,1.2h3.3C361.5,112,361.3,111.5,361.1,111.2z M358.8,108.8
			l-0.6-1l2.7-2l0.8,1.3L358.8,108.8z"/>
		<path d="M371.5,113.9h-5.1c0,0.6,0.2,1.1,0.6,1.5c0.3,0.2,0.6,0.5,1.1,0.5c0.5,0,0.9-0.1,1.1-0.4c0.2-0.2,0.3-0.4,0.4-0.6h1.8
			c0,0.5-0.4,1.1-0.6,1.4c-0.6,0.8-1.6,1.1-2.6,1.1c-1,0-1.8-0.4-2.4-0.9c-0.8-0.7-1.2-1.8-1.2-3.1c0-1.2,0.4-2.3,1.1-3.1
			c0.6-0.6,1.4-1,2.4-1c1.1,0,2.2,0.5,2.8,1.4c0.6,0.8,0.7,1.7,0.7,2.7C371.5,113.4,371.5,113.7,371.5,113.9z M369.2,111.2
			c-0.3-0.3-0.6-0.4-1.2-0.4c-0.6,0-1,0.2-1.3,0.6c-0.3,0.3-0.4,0.7-0.4,1.2h3.3C369.7,112,369.5,111.5,369.2,111.2z"/>
	</g>
</g>
</svg>
