<?xml version="1.0" encoding="utf-8"?>
<!-- Generator: Adobe Illustrator 21.1.0, SVG Export Plug-In . SVG Version: 6.00 Build 0)  -->
<svg version="1.1" id="Calque_1" xmlns="http://www.w3.org/2000/svg" xmlns:xlink="http://www.w3.org/1999/xlink" x="0px" y="0px"
	 viewBox="0 0 20 19.6" style="enable-background:new 0 0 20 19.6;" xml:space="preserve">
<style type="text/css">
	.st0{clip-path:url(#SVGID_2_);}
</style>
<g>
	<defs>
		<rect id="SVGID_1_" y="0" width="20" height="19.6"/>
	</defs>
	<clipPath id="SVGID_2_">
		<use xlink:href="#SVGID_1_"  style="overflow:visible;"/>
	</clipPath>
	<path class="st0" d="M20,4.2h-2.7v2.7H16V4.2h-2.7V2.9H16V0.3h1.3v2.7H20V4.2z M12.5,15.2c0,2-1.8,4.4-6.4,4.4
		c-3.3,0-6.1-1.4-6.1-3.9c0-1.9,1.2-4.3,6.7-4.3c-0.8-0.7-1-1.6-0.5-2.6C3,8.8,1.3,6.9,1.3,4.5C1.3,2.2,3.1,0,6.6,0h5.7l-1.3,1.3
		H9.6c1.1,0.6,1.6,1.9,1.6,3.2c0,1.3-0.7,2.3-1.7,3.1C7.8,9,8.2,9.8,10.1,11.2C11.9,12.5,12.5,13.6,12.5,15.2 M8.9,4.7
		C8.7,2.7,7.3,1,5.8,0.9c-1.5,0-2.6,1.5-2.3,3.5c0.3,2,1.7,3.5,3.3,3.5C8.3,8,9.2,6.7,8.9,4.7 M10.5,15.4c0-1.7-1.5-3.3-4.1-3.3
		c-2.3,0-4.3,1.5-4.3,3.2c0,1.8,1.7,3.2,4,3.2C9.1,18.5,10.5,17.2,10.5,15.4"/>
</g>
</svg>
