<?xml version="1.0" encoding="utf-8"?>
<!-- Generator: Adobe Illustrator 21.1.0, SVG Export Plug-In . SVG Version: 6.00 Build 0)  -->
<svg version="1.1" id="Mode_Isolation" xmlns="http://www.w3.org/2000/svg" xmlns:xlink="http://www.w3.org/1999/xlink" x="0px"
	 y="0px" viewBox="0 0 65 43" style="enable-background:new 0 0 65 43;" xml:space="preserve">
<style type="text/css">
	.st0{fill:#4AC1B4;}
</style>
<path class="st0" d="M23.8,0c0,0-5.3,7-5.8,12.1c0.4,0.1,0.8,0.3,1.1,0.4c6.5,1.7,11.3,7.6,11.3,14.7c0,7.5-5.4,13.7-12.5,14.9
	C17,42.4,16,42.5,15,42.5c-10.7,0-15-9-15-15.3C0,11.7,17.3,1.2,23.8,0z M34.6,27.2c0,6.3,4.3,15.3,15,15.3c1,0,2-0.1,2.9-0.3
	C59.6,40.9,65,34.7,65,27.2c0-7.1-4.8-13-11.3-14.7c-0.4-0.1-0.7-0.3-1.1-0.4C53,7,58.4,0,58.4,0C51.9,1.2,34.6,11.7,34.6,27.2z"/>
</svg>
